<svg xmlns="http://www.w3.org/2000/svg" xmlns:xlink="http://www.w3.org/1999/xlink" width="500" zoomAndPan="magnify" viewBox="0 0 375 374.999991" height="500" preserveAspectRatio="xMidYMid meet" version="1.0"><defs><g/><clipPath id="id1"><path d="M 267.667969 241.328125 L 300.667969 241.328125 L 300.667969 266.078125 L 267.667969 266.078125 Z M 267.667969 241.328125 " clip-rule="nonzero"/></clipPath></defs><g clip-path="url(#id1)"><path fill="#ffffff" d="M 284.167969 241.328125 L 281.417969 266.074219 L 284.167969 266.074219 L 286.917969 241.328125 Z M 275.515625 245.855469 L 267.667969 253.703125 L 275.515625 261.546875 L 277.460938 259.605469 L 271.558594 253.703125 L 277.460938 247.800781 Z M 292.820312 245.855469 L 290.878906 247.800781 L 296.78125 253.703125 L 290.878906 259.605469 L 292.820312 261.546875 L 300.667969 253.703125 Z M 292.820312 245.855469 " fill-opacity="1" fill-rule="nonzero"/></g><g fill="#ffffff" fill-opacity="1"><g transform="translate(136.184491, 190.211157)"><g><path d="M 52.578125 -16.859375 C 52.578125 -16.992188 52.71875 -17.0625 53 -17.0625 C 53.207031 -17.0625 53.398438 -17.007812 53.578125 -16.90625 C 53.753906 -16.800781 53.84375 -16.710938 53.84375 -16.640625 C 53.132812 -11.128906 52.78125 -6.113281 52.78125 -1.59375 C 52.78125 -1.019531 52.675781 -0.609375 52.46875 -0.359375 C 52.257812 -0.117188 51.835938 0 51.203125 0 L 4.34375 0 C 4.132812 0 4.03125 -0.207031 4.03125 -0.625 C 4.03125 -1.050781 4.132812 -1.265625 4.34375 -1.265625 C 6.601562 -1.265625 8.242188 -1.441406 9.265625 -1.796875 C 10.296875 -2.148438 10.988281 -2.835938 11.34375 -3.859375 C 11.695312 -4.890625 11.875 -6.46875 11.875 -8.59375 L 11.875 -57.65625 C 11.875 -59.78125 11.695312 -61.335938 11.34375 -62.328125 C 10.988281 -63.316406 10.28125 -64.003906 9.21875 -64.390625 C 8.15625 -64.785156 6.53125 -64.984375 4.34375 -64.984375 C 4.132812 -64.984375 4.03125 -65.191406 4.03125 -65.609375 C 4.03125 -66.035156 4.132812 -66.25 4.34375 -66.25 L 49.296875 -66.25 C 49.992188 -66.25 50.34375 -65.929688 50.34375 -65.296875 L 50.5625 -51.203125 C 50.5625 -51.054688 50.363281 -50.945312 49.96875 -50.875 C 49.582031 -50.8125 49.359375 -50.882812 49.296875 -51.09375 C 48.160156 -55.1875 46.25 -58.222656 43.5625 -60.203125 C 40.875 -62.179688 37.34375 -63.171875 32.96875 -63.171875 L 29.78125 -63.171875 C 27.664062 -63.171875 26.113281 -62.710938 25.125 -61.796875 C 24.132812 -60.878906 23.640625 -59.46875 23.640625 -57.5625 L 23.640625 -35.9375 L 32.4375 -35.9375 C 36.53125 -35.9375 39.671875 -36.640625 41.859375 -38.046875 C 44.054688 -39.460938 45.15625 -41.441406 45.15625 -43.984375 C 45.15625 -44.203125 45.347656 -44.3125 45.734375 -44.3125 C 46.128906 -44.3125 46.328125 -44.203125 46.328125 -43.984375 L 46.21875 -34.453125 L 46.328125 -29.359375 C 46.460938 -26.960938 46.53125 -25.054688 46.53125 -23.640625 C 46.53125 -23.492188 46.316406 -23.421875 45.890625 -23.421875 C 45.472656 -23.421875 45.265625 -23.492188 45.265625 -23.640625 C 45.265625 -26.535156 44.148438 -28.8125 41.921875 -30.46875 C 39.691406 -32.132812 36.492188 -32.96875 32.328125 -32.96875 L 23.640625 -32.96875 L 23.640625 -9.015625 C 23.640625 -6.960938 24.023438 -5.441406 24.796875 -4.453125 C 25.578125 -3.460938 26.816406 -2.96875 28.515625 -2.96875 L 32.015625 -2.96875 C 37.523438 -2.96875 41.941406 -4.097656 45.265625 -6.359375 C 48.585938 -8.617188 51.023438 -12.117188 52.578125 -16.859375 Z M 52.578125 -16.859375 "/></g></g></g><g fill="#ffffff" fill-opacity="1"><g transform="translate(172.329118, 245.061577)"><g><path d="M 90.796875 -1.3125 C 90.941406 -1.3125 91.015625 -1.09375 91.015625 -0.65625 C 91.015625 -0.21875 90.941406 0 90.796875 0 C 88.328125 0 86.363281 -0.0351562 84.90625 -0.109375 L 76.84375 -0.21875 L 68.671875 -0.109375 C 67.285156 -0.0351562 65.394531 0 63 0 C 62.78125 0 62.671875 -0.21875 62.671875 -0.65625 C 62.671875 -1.09375 62.78125 -1.3125 63 -1.3125 C 66.050781 -1.3125 68.117188 -1.671875 69.203125 -2.390625 C 70.296875 -3.117188 70.84375 -4.644531 70.84375 -6.96875 L 70.734375 -8.828125 L 68.453125 -53.40625 L 46 -0.765625 C 45.851562 -0.472656 45.5625 -0.328125 45.125 -0.328125 C 44.6875 -0.328125 44.394531 -0.472656 44.25 -0.765625 L 16.671875 -53.1875 L 15.8125 -13.84375 C 15.738281 -9.914062 16.515625 -6.84375 18.140625 -4.625 C 19.773438 -2.414062 22.082031 -1.3125 25.0625 -1.3125 C 25.28125 -1.3125 25.390625 -1.09375 25.390625 -0.65625 C 25.390625 -0.21875 25.28125 0 25.0625 0 C 23.101562 0 21.578125 -0.0351562 20.484375 -0.109375 L 14.5 -0.21875 L 7.625 -0.109375 C 6.46875 -0.0351562 4.90625 0 2.9375 0 C 2.71875 0 2.609375 -0.21875 2.609375 -0.65625 C 2.609375 -1.09375 2.71875 -1.3125 2.9375 -1.3125 C 5.914062 -1.3125 8.273438 -2.4375 10.015625 -4.6875 C 11.765625 -6.9375 12.675781 -9.988281 12.75 -13.84375 L 13.734375 -58.96875 L 13.625 -59.078125 C 12.164062 -61.765625 10.65625 -63.722656 9.09375 -64.953125 C 7.539062 -66.191406 5.742188 -66.8125 3.703125 -66.8125 C 3.484375 -66.8125 3.375 -67.03125 3.375 -67.46875 C 3.375 -67.90625 3.484375 -68.125 3.703125 -68.125 L 8.828125 -68.015625 C 9.847656 -67.941406 11.15625 -67.90625 12.75 -67.90625 L 18.53125 -68.015625 C 19.1875 -68.085938 20.019531 -68.125 21.03125 -68.125 C 21.976562 -68.125 22.707031 -67.796875 23.21875 -67.140625 C 23.726562 -66.484375 24.671875 -64.921875 26.046875 -62.453125 L 49.8125 -17.875 L 70.515625 -65.40625 C 70.953125 -66.414062 71.40625 -67.117188 71.875 -67.515625 C 72.351562 -67.921875 72.992188 -68.125 73.796875 -68.125 C 74.453125 -68.125 75.195312 -68.085938 76.03125 -68.015625 C 76.863281 -67.941406 77.828125 -67.90625 78.921875 -67.90625 L 85.34375 -68.015625 C 86.363281 -68.085938 87.816406 -68.125 89.703125 -68.125 C 89.921875 -68.125 90.03125 -67.90625 90.03125 -67.46875 C 90.03125 -67.03125 89.921875 -66.8125 89.703125 -66.8125 C 86.285156 -66.8125 83.8125 -66.117188 82.28125 -64.734375 C 80.757812 -63.359375 80.070312 -61.21875 80.21875 -58.3125 L 82.84375 -8.828125 C 82.988281 -6.578125 83.257812 -4.941406 83.65625 -3.921875 C 84.050781 -2.898438 84.773438 -2.207031 85.828125 -1.84375 C 86.890625 -1.488281 88.546875 -1.3125 90.796875 -1.3125 Z M 90.796875 -1.3125 "/></g></g></g><g fill="#ffffff" fill-opacity="1"><g transform="translate(149.450745, 259.315867)"><g><path d="M 9.90625 -1.75 L 9.90625 0 L 1.5 0 L 1.5 -11.203125 L 9.6875 -11.203125 L 9.6875 -9.453125 L 3.578125 -9.453125 L 3.578125 -6.546875 L 8.984375 -6.546875 L 8.984375 -4.828125 L 3.578125 -4.828125 L 3.578125 -1.75 Z M 9.90625 -1.75 "/></g></g></g><g fill="#ffffff" fill-opacity="1"><g transform="translate(163.9762, 259.315867)"><g><path d="M 11.453125 -11.203125 L 11.453125 0 L 9.75 0 L 3.5625 -7.578125 L 3.5625 0 L 1.5 0 L 1.5 -11.203125 L 3.21875 -11.203125 L 9.390625 -3.609375 L 9.390625 -11.203125 Z M 11.453125 -11.203125 "/></g></g></g><g fill="#ffffff" fill-opacity="1"><g transform="translate(180.741115, 259.315867)"><g><path d="M 6.734375 0.15625 C 5.597656 0.15625 4.566406 -0.0859375 3.640625 -0.578125 C 2.722656 -1.078125 2.003906 -1.765625 1.484375 -2.640625 C 0.960938 -3.523438 0.703125 -4.507812 0.703125 -5.59375 C 0.703125 -6.6875 0.960938 -7.671875 1.484375 -8.546875 C 2.003906 -9.429688 2.722656 -10.117188 3.640625 -10.609375 C 4.566406 -11.109375 5.597656 -11.359375 6.734375 -11.359375 C 7.878906 -11.359375 8.910156 -11.109375 9.828125 -10.609375 C 10.742188 -10.117188 11.460938 -9.4375 11.984375 -8.5625 C 12.503906 -7.6875 12.765625 -6.695312 12.765625 -5.59375 C 12.765625 -4.5 12.503906 -3.515625 11.984375 -2.640625 C 11.460938 -1.765625 10.742188 -1.078125 9.828125 -0.578125 C 8.910156 -0.0859375 7.878906 0.15625 6.734375 0.15625 Z M 6.734375 -1.65625 C 7.484375 -1.65625 8.15625 -1.820312 8.75 -2.15625 C 9.34375 -2.5 9.8125 -2.972656 10.15625 -3.578125 C 10.5 -4.179688 10.671875 -4.851562 10.671875 -5.59375 C 10.671875 -6.34375 10.5 -7.019531 10.15625 -7.625 C 9.8125 -8.226562 9.34375 -8.695312 8.75 -9.03125 C 8.15625 -9.363281 7.484375 -9.53125 6.734375 -9.53125 C 5.984375 -9.53125 5.3125 -9.363281 4.71875 -9.03125 C 4.125 -8.695312 3.65625 -8.226562 3.3125 -7.625 C 2.96875 -7.019531 2.796875 -6.34375 2.796875 -5.59375 C 2.796875 -4.851562 2.96875 -4.179688 3.3125 -3.578125 C 3.65625 -2.972656 4.125 -2.5 4.71875 -2.15625 C 5.3125 -1.820312 5.984375 -1.65625 6.734375 -1.65625 Z M 6.734375 -1.65625 "/></g></g></g><g fill="#ffffff" fill-opacity="1"><g transform="translate(198.01791, 259.315867)"><g/></g></g><g fill="#ffffff" fill-opacity="1"><g transform="translate(206.240879, 259.315867)"><g><path d="M 11.796875 0 L 11.78125 -7.421875 L 8.09375 -1.28125 L 7.171875 -1.28125 L 3.484375 -7.328125 L 3.484375 0 L 1.5 0 L 1.5 -11.203125 L 3.21875 -11.203125 L 7.65625 -3.78125 L 12.03125 -11.203125 L 13.75 -11.203125 L 13.765625 0 Z M 11.796875 0 "/></g></g></g><g fill="#ffffff" fill-opacity="1"><g transform="translate(225.325239, 259.315867)"><g><path d="M 9.90625 -1.75 L 9.90625 0 L 1.5 0 L 1.5 -11.203125 L 9.6875 -11.203125 L 9.6875 -9.453125 L 3.578125 -9.453125 L 3.578125 -6.546875 L 8.984375 -6.546875 L 8.984375 -4.828125 L 3.578125 -4.828125 L 3.578125 -1.75 Z M 9.90625 -1.75 "/></g></g></g><g fill="#ffffff" fill-opacity="1"><g transform="translate(239.850698, 259.315867)"><g><path d="M 3.78125 -9.4375 L 0.0625 -9.4375 L 0.0625 -11.203125 L 9.5625 -11.203125 L 9.5625 -9.4375 L 5.859375 -9.4375 L 5.859375 0 L 3.78125 0 Z M 3.78125 -9.4375 "/></g></g></g><g fill="#ffffff" fill-opacity="1"><g transform="translate(253.288418, 259.315867)"><g><path d="M 8.765625 -2.59375 L 3.171875 -2.59375 L 2.0625 0 L -0.078125 0 L 4.953125 -11.203125 L 7.015625 -11.203125 L 12.0625 0 L 9.890625 0 Z M 8.078125 -4.21875 L 5.96875 -9.125 L 3.875 -4.21875 Z M 8.078125 -4.21875 "/></g></g></g></svg>